# xmcd
#
# Track frame offsets:
#	150
#	17739
#	38124
#	59743
#	76394
#	96907
#	113276
#	130994
#	148576
#	164475
#
# Disc length: 2415 seconds
#
# Revision: 1
# Processed by: cddbd v1.5.2PL0 Copyright (c) Steve Scherf et al.
# Submitted via: audiograbber 1.83.01
#
DISCID=83096d0a
DTITLE=C. W. Stoneking - Jungle Blues
DYEAR=2008
DGENRE=Blues
TTITLE0=Jungle Blues
TTITLE1=Talkin Lion Blues
TTITLE2=Jungle Lullaby
TTITLE3=Brave Son Of America
TTITLE4=Jailhouse Blues
TTITLE5=Housebound Blues
TTITLE6=I Heard The Marchin Of The Drum
TTITLE7=The Love Me Or Die
TTITLE8=Early In The Mornin
TTITLE9=The Greatest Liar
EXTD=
EXTT0=
EXTT1=
EXTT2=
EXTT3=
EXTT4=
EXTT5=
EXTT6=
EXTT7=
EXTT8=
EXTT9=
PLAYORDER=
